<svg viewBox="0 -51 295 65" xmlns="http://www.w3.org/2000/svg" xmlns:xlink="http://www.w3.org/1999/xlink">

  <path fill="#eee" d="M66.85 13.86L66.85 13.86L66.85 13.86Q65.10 13.86 63.42 13.58L63.42 13.58L63.42 13.58Q56.63 12.53 51.87 8.44L51.87 8.44L51.87 8.44Q47.11 4.34 45.01-1.75L45.01-1.75L45.01-1.75Q38.43 0.98 30.80 0.98L30.80 0.98L30.80 0.98Q18.20 0.98 10.15-6.16L10.15-6.16L10.15-6.16Q2.10-13.30 2.10-24.50L2.10-24.50L2.10-24.50Q2.10-31.99 5.78-37.80L5.78-37.80L5.78-37.80Q9.45-43.61 16.10-46.80L16.10-46.80L16.10-46.80Q22.75-49.98 31.29-49.98L31.29-49.98L31.29-49.98Q36.89-49.98 42.14-48.90L42.14-48.90L42.14-48.90Q47.39-47.81 50.61-46.20L50.61-46.20L50.75-34.16L50.19-34.16L50.19-34.16Q48.51-40.53 43.72-43.79L43.72-43.79L43.72-43.79Q38.92-47.04 32.20-47.04L32.20-47.04L32.20-47.04Q23.94-47.04 18.73-40.71L18.73-40.71L18.73-40.71Q13.51-34.37 13.51-24.40L13.51-24.40L13.51-24.40Q13.51-14.42 18.62-8.19L18.62-8.19L18.62-8.19Q23.73-1.96 31.78-1.96L31.78-1.96L31.78-1.96Q36.12-1.96 39.31-3.85L39.31-3.85L39.31-3.85Q42.49-5.74 43.61-8.89L43.61-8.89L43.61-19.53L43.61-19.53Q43.61-21.07 42.70-21.91L42.70-21.91L42.70-21.91Q41.79-22.75 40.11-22.75L40.11-22.75L38.99-22.75L38.99-23.45L58.66-23.45L58.66-22.75L57.61-22.75L57.61-22.75Q55.86-22.75 54.95-21.91L54.95-21.91L54.95-21.91Q54.04-21.07 54.11-19.60L54.11-19.60L54.11-8.47L54.11-8.47Q54.18-3.85 55.86 0.14L55.86 0.14L55.86 0.14Q59.57 8.68 68.18 10.78L68.18 10.78L68.18 10.78Q70.49 11.34 72.98 11.34L72.98 11.34L72.98 11.34Q75.46 11.34 78.05 10.78L78.05 10.78L78.19 11.48L78.19 11.48Q72.17 13.86 66.85 13.86Z"/>

  <path fill="#eee" d="M38.91-23.15L38.51-24.67L38.91-26.12L58.71-26.12L59.11-24.67L58.71-23.15L38.91-23.15Z"/>

  <path fill="#eee" d="M71.75-18.76L71.35-18.68L71.35-18.68Q71.19-19.20 71.19-19.58L71.19-19.58L71.19-19.58Q71.19-19.96 71.23-20.44L71.23-20.44L71.23-20.44Q71.27-20.92 71.41-21.76L71.41-21.76L71.41-21.76Q71.55-22.60 71.95-23.42L71.95-23.42L71.95-23.42Q72.35-24.24 72.87-25L72.87-25L72.87-25Q73.39-25.76 74.21-26.40L74.21-26.40L74.21-26.40Q75.03-27.04 76.03-27.52L76.03-27.52L76.03-27.52Q78.15-28.56 81.19-28.56L81.19-28.56L81.19-28.56Q87.31-28.56 91.17-24.50L91.17-24.50L91.17-24.50Q95.03-20.44 95.03-14.12L95.03-14.12L95.03-14.12Q95.03-7.80 90.47-3.62L90.47-3.62L90.47-3.62Q85.91 0.56 78.91 0.56L78.91 0.56L78.91 0.56Q71.91 0.56 67.29-3.60L67.29-3.60L67.29-3.60Q62.67-7.76 62.67-14.40L62.67-14.40L62.67-14.40Q62.67-18.68 64.67-22L64.67-22L64.67-22Q66.67-25.32 70.39-27.20L70.39-27.20L70.63-26.84L70.63-26.84Q68.03-25.12 66.89-21.88L66.89-21.88L66.89-21.88Q65.75-18.64 65.75-15L65.75-15L65.75-15Q65.75-8.24 69.43-4.44L69.43-4.44L69.43-4.44Q73.11-0.64 78.87-0.64L78.87-0.64L78.87-0.64Q84.63-0.64 88.29-4.46L88.29-4.46L88.29-4.46Q91.95-8.28 91.95-14.52L91.95-14.52L91.95-14.52Q91.95-19.92 89.05-23.64L89.05-23.64L89.05-23.64Q86.15-27.36 80.87-27.36L80.87-27.36L80.87-27.36Q78.51-27.36 76.59-26.52L76.59-26.52L76.59-26.52Q73.11-25.04 71.99-21.64L71.99-21.64L71.99-21.64Q71.67-20.64 71.67-19.92L71.67-19.92L71.67-19.92Q71.67-19.20 71.75-18.76L71.75-18.76ZM99.03-0.40L99.55-0.40L99.55-0.40Q100.59-0.40 101.33-1.14L101.33-1.14L101.33-1.14Q102.07-1.88 102.11-2.92L102.11-2.92L102.11-25.08L102.11-25.08Q102.07-26.12 101.33-26.86L101.33-26.86L101.33-26.86Q100.59-27.60 99.55-27.60L99.55-27.60L99.03-27.60L99.03-28L107.79-28L107.79-27.60L107.27-27.60L107.27-27.60Q105.83-27.60 105.07-26.36L105.07-26.36L105.07-26.36Q104.71-25.76 104.71-25.08L104.71-25.08L104.71-1.24L110.43-1.24L110.43-1.24Q113.39-1.24 114.95-2.56L114.95-2.56L114.95-2.56Q116.51-3.88 117.55-6.48L117.55-6.48L117.95-6.48L115.63 0L99.03 0L99.03-0.40ZM115.55-22L115.11-22.16L115.11-22.16Q116.27-25.56 118.99-26.84L118.99-26.84L118.99-26.84Q121.71-28.12 128.63-28.12L128.63-28.12L128.63-28.12Q130.07-28.12 135.91-28L135.91-28L135.91-28Q140.15-27.88 143.39-26.16L143.39-26.16L143.39-26.16Q146.63-24.44 148.45-21.30L148.45-21.30L148.45-21.30Q150.27-18.16 150.27-14L150.27-14L150.27-14Q150.27-7.72 146.29-3.86L146.29-3.86L146.29-3.86Q142.31 0 135.91 0L135.91 0L122.35 0L122.39-0.40L122.87-0.40L122.87-0.40Q123.87-0.40 124.59-1.06L124.59-1.06L124.59-1.06Q125.31-1.72 125.43-2.68L125.43-2.68L125.43-26.80L125.43-26.80Q120.43-26.68 118.35-25.24L118.35-25.24L118.35-25.24Q117.27-24.48 116.71-23.78L116.71-23.78L116.71-23.78Q116.15-23.08 115.55-22L115.55-22ZM135.91-26.80L128.03-26.80L128.03-1.20L135.91-1.20L135.91-1.20Q140.99-1.20 144.13-4.72L144.13-4.72L144.13-4.72Q147.27-8.24 147.27-14L147.27-14L147.27-14Q147.27-17.80 145.85-20.70L145.85-20.70L145.85-20.70Q144.43-23.60 141.85-25.20L141.85-25.20L141.85-25.20Q139.27-26.80 135.91-26.80L135.91-26.80Z"/>

  <path fill="#eee" d="M180.28-30.52L180.28-30.52L180.28-30.52Q179.02-29.19 177.41-28.56L177.41-28.56L177.41-28.56Q184.27-27.58 187.84-23.70L187.84-23.70L187.84-23.70Q191.41-19.81 191.41-14.21L191.41-14.21L191.41-14.21Q191.41-7.42 185.95-3.22L185.95-3.22L185.95-3.22Q180.49 0.98 171.60 0.98L171.60 0.98L171.60 0.98Q162.71 0.98 157.67-3.40L157.67-3.40L157.67-3.40Q152.63-7.77 152.63-15.75L152.63-15.75L152.63-15.75Q152.63-16.17 152.63-16.59L152.63-16.59L153.40-16.73L153.40-16.73Q154.80-6.30 162.08-3.22L162.08-3.22L162.08-43.96L162.08-43.96Q161.94-45.85 160.65-47.08L160.65-47.08L160.65-47.08Q159.35-48.30 157.53-48.30L157.53-48.30L156.69-48.30L156.69-49.00L168.45-49.00L168.45-49.00Q175.03-49.00 178.99-45.99L178.99-45.99L178.99-45.99Q182.94-42.98 182.94-38.12L182.94-38.12L182.94-38.12Q182.94-33.25 180.28-30.52ZM167.54-46.76L166.63-46.76L166.63-1.96L166.63-1.96Q168.94-1.61 171.95-1.61L171.95-1.61L171.95-1.61Q178.67-1.61 182.42-5.22L182.42-5.22L182.42-5.22Q186.16-8.82 186.16-14.56L186.16-14.56L186.16-14.56Q186.16-17.64 185.01-20.02L185.01-20.02L185.01-20.02Q183.85-22.40 182.10-23.73L182.10-23.73L182.10-23.73Q177.48-27.30 169.08-27.30L169.08-27.30L169.08-27.30Q169.01-27.30 169.01-27.30L169.01-27.30L168.94-27.93L168.94-27.93Q169.01-27.93 169.01-27.93L169.01-27.93L169.01-27.93Q172.58-27.93 175.14-30.28L175.14-30.28L175.14-30.28Q177.69-32.62 177.69-37.52L177.69-37.52L177.69-37.52Q177.69-46.76 167.54-46.76L167.54-46.76L167.54-46.76Z"/>

  <path fill="#eee" d="M196.61-0.40L197.13-0.40L197.13-0.40Q198.17-0.40 198.91-1.14L198.91-1.14L198.91-1.14Q199.65-1.88 199.69-2.92L199.69-2.92L199.69-25.32L199.69-25.32Q199.69-26.28 198.93-26.94L198.93-26.94L198.93-26.94Q198.17-27.60 197.13-27.60L197.13-27.60L196.65-27.60L196.61-28L208.33-28L208.33-28Q209.57-28 211.03-28.24L211.03-28.24L211.03-28.24Q212.49-28.48 213.09-28.72L213.09-28.72L213.09-23.68L212.69-23.68L212.69-24.40L212.69-24.40Q212.69-25.36 212.03-26.04L212.03-26.04L212.03-26.04Q211.37-26.72 210.45-26.76L210.45-26.76L202.29-26.76L202.29-14.40L209.05-14.40L209.05-14.40Q209.85-14.44 210.41-15L210.41-15L210.41-15Q210.97-15.56 210.97-16.40L210.97-16.40L210.97-16.96L211.37-16.96L211.37-10.64L210.97-10.64L210.97-11.24L210.97-11.24Q210.97-12.04 210.43-12.60L210.43-12.60L210.43-12.60Q209.89-13.16 209.09-13.20L209.09-13.20L202.29-13.20L202.29-1.24L208.01-1.24L208.01-1.24Q210.97-1.24 212.53-2.56L212.53-2.56L212.53-2.56Q214.09-3.88 215.13-6.48L215.13-6.48L215.53-6.48L213.21 0L196.61 0L196.61-0.40ZM254.81 6.40L254.81 6.80L254.81 6.80Q253.13 7.24 251.83 7.24L251.83 7.24L251.83 7.24Q250.53 7.24 249.53 7.08L249.53 7.08L249.53 7.08Q248.53 6.92 247.39 6.46L247.39 6.46L247.39 6.46Q246.25 6 245.25 5.40L245.25 5.40L245.25 5.40Q244.25 4.80 243.25 3.92L243.25 3.92L243.25 3.92Q241.41 2.44 239.91 0.72L239.91 0.72L239.91 0.72Q238.41-1 234.13-5.74L234.13-5.74L234.13-5.74Q229.85-10.48 228.45-12.04L228.45-12.04L228.45-12.04Q227.05-13.60 226.29-13.68L226.29-13.68L226.29-14.08L226.29-14.08Q228.61-14.08 229.39-14.18L229.39-14.18L229.39-14.18Q230.17-14.28 231.05-14.54L231.05-14.54L231.05-14.54Q231.93-14.80 232.53-15.24L232.53-15.24L232.53-15.24Q234.89-16.76 234.89-20.28L234.89-20.28L234.89-20.28Q234.89-23.20 233.59-24.96L233.59-24.96L233.59-24.96Q232.29-26.72 229.93-26.76L229.93-26.76L224.97-26.76L224.97-2.92L224.97-2.92Q224.97-1.92 225.71-1.16L225.71-1.16L225.71-1.16Q226.45-0.40 227.53-0.40L227.53-0.40L228.01-0.40L228.05 0L219.29 0L219.29-0.40L219.81-0.40L219.81-0.40Q220.81-0.40 221.57-1.12L221.57-1.12L221.57-1.12Q222.33-1.84 222.37-2.88L222.37-2.88L222.37-25.08L222.37-25.08Q222.33-26.12 221.59-26.86L221.59-26.86L221.59-26.86Q220.85-27.60 219.81-27.60L219.81-27.60L219.29-27.60L219.29-28L230.09-28L230.09-28Q233.61-28 235.75-26.02L235.75-26.02L235.75-26.02Q237.89-24.04 237.89-20.78L237.89-20.78L237.89-20.78Q237.89-17.52 235.93-15.18L235.93-15.18L235.93-15.18Q233.97-12.84 231.13-12.84L231.13-12.84L231.13-12.84Q231.13-12.84 231.09-12.84L231.09-12.84L231.09-12.84Q232.45-11.40 234.17-9.48L234.17-9.48L234.17-9.48Q241.09-1.84 243.05 0.12L243.05 0.12L243.05 0.12Q245.01 2.08 246.51 3.34L246.51 3.34L246.51 3.34Q248.01 4.60 249.17 5.20L249.17 5.20L249.17 5.20Q251.53 6.48 253.85 6.48L253.85 6.48L253.85 6.48Q254.33 6.48 254.81 6.40L254.81 6.40ZM253.61-26.76L253.61-26.76L251.05-26.76L251.05-2.92L251.05-2.92Q251.05-1.88 251.79-1.14L251.79-1.14L251.79-1.14Q252.53-0.40 253.61-0.40L253.61-0.40L254.09-0.40L254.13 0L245.37 0L245.37-0.40L245.89-0.40L245.89-0.40Q246.93-0.40 247.67-1.12L247.67-1.12L247.67-1.12Q248.41-1.84 248.45-2.88L248.45-2.88L248.45-25.08L248.45-25.08Q248.41-26.12 247.67-26.86L247.67-26.86L247.67-26.86Q246.93-27.60 245.89-27.60L245.89-27.60L245.37-27.60L245.37-28L256.17-28L256.17-28Q259.81-28 261.89-25.98L261.89-25.98L261.89-25.98Q263.97-23.96 263.97-20.74L263.97-20.74L263.97-20.74Q263.97-17.52 261.99-15.18L261.99-15.18L261.99-15.18Q260.01-12.84 257.17-12.84L257.17-12.84L257.17-12.84Q257.77-12.56 258.59-11.74L258.59-11.74L258.59-11.74Q259.41-10.92 260.05-10.04L260.05-10.04L260.05-10.04Q263.49-5.12 264.53-3.98L264.53-3.98L264.53-3.98Q265.57-2.84 266.01-2.42L266.01-2.42L266.01-2.42Q266.45-2 266.97-1.60L266.97-1.60L266.97-1.60Q267.49-1.20 268.01-0.96L268.01-0.96L268.01-0.96Q269.17-0.40 270.49-0.40L270.49-0.40L270.49 0L268.29 0L268.29 0Q266.57 0 265.09-0.62L265.09-0.62L265.09-0.62Q263.61-1.24 262.87-1.90L262.87-1.90L262.87-1.90Q262.13-2.56 261.59-3.18L261.59-3.18L261.59-3.18Q261.05-3.80 258.61-7.32L258.61-7.32L258.61-7.32Q256.17-10.84 255.77-11.34L255.77-11.34L255.77-11.34Q255.37-11.84 254.93-12.32L254.93-12.32L254.93-12.32Q253.65-13.68 252.37-13.68L252.37-13.68L252.37-14.08L252.37-14.08Q252.69-14.04 253.21-14.04L253.21-14.04L253.21-14.04Q253.73-14.04 254.49-14.08L254.49-14.08L254.49-14.08Q259.45-14.20 260.73-18.24L260.73-18.24L260.73-18.24Q260.97-19.04 260.97-19.74L260.97-19.74L260.97-19.74Q260.97-20.44 260.97-20.64L260.97-20.64L260.97-20.64Q260.89-23.32 259.57-24.96L259.57-24.96L259.57-24.96Q258.25-26.60 256.01-26.72L256.01-26.72L256.01-26.72Q255.05-26.76 253.61-26.76ZM294.13-28L294.13-27.60L293.57-27.60L293.57-27.60Q292.37-27.60 291.31-26.94L291.31-26.94L291.31-26.94Q290.25-26.28 289.53-25.28L289.53-25.28L281.65-12.48L281.65-2.92L281.65-2.92Q281.65-1.88 282.39-1.14L282.39-1.14L282.39-1.14Q283.13-0.40 284.21-0.40L284.21-0.40L284.69-0.40L284.69 0L275.97 0L275.97-0.40L276.49-0.40L276.49-0.40Q277.53-0.40 278.27-1.12L278.27-1.12L278.27-1.12Q279.01-1.84 279.05-2.88L279.05-2.88L279.05-12.52L271.41-25.28L271.41-25.28Q270.81-26.24 269.71-26.92L269.71-26.92L269.71-26.92Q268.61-27.60 267.41-27.60L267.41-27.60L266.85-27.60L266.85-28L276.69-28L276.69-27.60L276.17-27.60L276.17-27.60Q275.29-27.60 274.81-26.80L274.81-26.80L274.81-26.80Q274.57-26.36 274.57-25.94L274.57-25.94L274.57-25.94Q274.57-25.52 274.77-25.12L274.77-25.12L280.77-13.92L287.17-25.16L287.17-25.16Q287.37-25.56 287.37-25.96L287.37-25.96L287.37-25.96Q287.37-26.36 287.09-26.80L287.09-26.80L287.09-26.80Q286.61-27.60 285.73-27.60L285.73-27.60L285.25-27.60L285.25-28L294.13-28Z"/>

</svg>
